<svg width="50" height="50" viewBox="0 0 50 50" fill="none" xmlns="http://www.w3.org/2000/svg">
<g clip-path="url(#clip0_435_668)">
<path d="M25 50C38.8071 50 50 38.8071 50 25C50 11.1929 38.8071 0 25 0C11.1929 0 0 11.1929 0 25C0 38.8071 11.1929 50 25 50Z" fill="#F0F0F0"/>
<path d="M19.5654 21.7392H49.7884C48.1905 9.47285 37.7019 0 25.0001 0C23.1334 0 21.3153 0.206348 19.5653 0.594238V21.7392H19.5654Z" fill="#D80027"/>
<path d="M13.0435 21.7391V3.03973C6.17895 6.78524 1.2647 13.6555 0.21167 21.7391H13.0435V21.7391Z" fill="#D80027"/>
<path d="M13.0434 28.2609H0.21167C1.2647 36.3446 6.17895 43.2148 13.0435 46.9602L13.0434 28.2609Z" fill="#D80027"/>
<path d="M19.5653 28.261V49.4058C21.3153 49.7937 23.1334 50 25.0001 50C37.7019 50 48.1905 40.5272 49.7884 28.2609H19.5653V28.261Z" fill="#D80027"/>
</g>
<defs>
<clipPath id="clip0_435_668">
<rect width="50" height="50" fill="white"/>
</clipPath>
</defs>
</svg>
