<?xml version="1.0" encoding="UTF-8"?>
<svg xmlns="http://www.w3.org/2000/svg" xmlns:xlink="http://www.w3.org/1999/xlink" width="50px" height="50px" viewBox="0 0 50 50" version="1.1">
<g id="surface1">
<path style=" stroke:none;fill-rule:nonzero;fill:rgb(60%,60%,60%);fill-opacity:1;" d="M 25 50 C 38.808594 50 50 38.808594 50 25 C 50 11.191406 38.808594 0 25 0 C 11.191406 0 0 11.191406 0 25 C 0 38.808594 11.191406 50 25 50 Z M 25 50 "/>
<path style=" stroke:none;fill-rule:nonzero;fill:rgb(100%,100%,100%);fill-opacity:1;" d="M 26.925781 29.171875 L 21.984375 29.171875 C 21.984375 28.160156 22.050781 27.269531 22.191406 26.5 C 22.339844 25.71875 22.59375 25.019531 22.949219 24.398438 C 23.304688 23.78125 23.785156 23.207031 24.394531 22.675781 C 24.933594 22.230469 25.398438 21.800781 25.789062 21.386719 C 26.179688 20.972656 26.476562 20.554688 26.683594 20.128906 C 26.890625 19.703125 26.996094 19.25 26.996094 18.769531 C 26.996094 18.171875 26.910156 17.683594 26.738281 17.304688 C 26.574219 16.925781 26.328125 16.644531 25.996094 16.460938 C 25.675781 16.265625 25.265625 16.167969 24.773438 16.167969 C 24.371094 16.167969 23.992188 16.265625 23.636719 16.460938 C 23.292969 16.65625 23.011719 16.960938 22.792969 17.375 C 22.574219 17.773438 22.453125 18.308594 22.429688 18.976562 L 16.59375 18.976562 C 16.628906 17.265625 17.007812 15.875 17.730469 14.808594 C 18.464844 13.726562 19.441406 12.941406 20.65625 12.449219 C 21.886719 11.941406 23.257812 11.691406 24.773438 11.691406 C 26.449219 11.691406 27.890625 11.949219 29.097656 12.464844 C 30.300781 12.980469 31.226562 13.75 31.867188 14.773438 C 32.511719 15.78125 32.832031 17.027344 32.832031 18.511719 C 32.832031 19.496094 32.644531 20.359375 32.265625 21.09375 C 31.898438 21.816406 31.398438 22.492188 30.765625 23.125 C 30.148438 23.746094 29.453125 24.410156 28.683594 25.121094 C 28.015625 25.707031 27.5625 26.304688 27.320312 26.914062 C 27.082031 27.511719 26.949219 28.261719 26.925781 29.171875 Z M 21.277344 34.40625 C 21.277344 33.578125 21.574219 32.890625 22.171875 32.339844 C 22.769531 31.777344 23.542969 31.496094 24.496094 31.496094 C 25.449219 31.496094 26.226562 31.777344 26.824219 32.339844 C 27.417969 32.890625 27.71875 33.578125 27.71875 34.40625 C 27.71875 35.230469 27.417969 35.925781 26.824219 36.488281 C 26.226562 37.039062 25.449219 37.316406 24.496094 37.316406 C 23.542969 37.316406 22.769531 37.039062 22.171875 36.488281 C 21.574219 35.925781 21.277344 35.230469 21.277344 34.40625 Z M 21.277344 34.40625 "/>
</g>
</svg>
